<svg width="500" height="500" viewBox="0 0 500 500" fill="none" xmlns="http://www.w3.org/2000/svg">
<rect width="500" height="500" rx="250" fill="#0051DC"/>
<path fill-rule="evenodd" clip-rule="evenodd" d="M203.838 79.7246C204.671 84.0236 209.013 131.478 208.594 131.707C208.44 131.791 202.532 131.323 195.465 130.667C188.398 130.011 174.049 128.769 163.58 127.908C153.11 127.046 142.239 126.117 139.422 125.843C136.605 125.57 132.737 125.34 130.827 125.332L127.353 125.319L130.146 130.885C137.2 144.945 144.373 164.95 148.228 181.317C149.737 187.722 152.006 200.924 152.843 208.175C153.91 217.422 153.619 241.718 152.34 250.158C150.015 265.492 145.932 281.402 141.685 291.679C138.645 299.037 138.672 298.785 141.079 297.265C150.41 291.378 172.509 282.333 185.888 278.925C189.102 278.106 191.8 277.367 191.885 277.282C192.874 276.291 197.08 261.834 198.504 254.524C201.79 237.659 202.168 215.877 199.512 196.472C197.122 179.002 191.163 157.118 184.16 140.089C183.886 139.422 184.037 139.191 184.745 139.196C187.153 139.212 224.1 142.702 224.288 142.931C225.523 144.438 231.473 161.261 233.697 169.532C237.954 185.369 239.856 198.143 240.272 213.682C240.791 233.048 238.613 249.724 233.26 267.378C232.157 271.017 231.368 274.18 231.508 274.406C231.647 274.632 232.616 274.818 233.659 274.819C235.928 274.82 249.936 276.976 255.352 278.157C257.469 278.619 261.919 279.829 265.241 280.845C268.563 281.861 271.351 282.596 271.437 282.479C272.246 281.375 276.253 271.758 277.945 266.854C283.78 249.95 285.884 236.42 285.856 215.994C285.831 197.467 284.576 187.187 280.219 169.825C276.493 154.977 269.978 137.883 267.728 137.052C267.199 136.856 262.172 136.321 256.558 135.862C250.944 135.404 241.376 134.578 235.296 134.027C229.217 133.476 223.044 133.025 221.578 133.025C220.112 133.025 218.782 132.814 218.622 132.556C218.462 132.298 217.987 128.541 217.564 124.208C217.142 119.874 216.66 115.462 216.494 114.402L216.192 112.475L220.22 112.471C227.728 112.464 232.247 111.26 237.961 107.747C241.837 105.363 245.391 104.372 252.269 103.759C255.798 103.445 259.958 102.828 261.513 102.388C265.58 101.238 273.849 96.2804 273.849 94.9914C273.849 94.2043 273.497 93.9809 272.257 93.9809C270.164 93.9809 266.767 93.0099 255.602 89.2221C246.795 86.2332 246.066 86.0724 240.426 85.871C235.717 85.703 232.817 85.9357 226.291 87.0058C221.775 87.7466 217.572 88.4643 216.95 88.6015C216.015 88.807 215.734 88.544 215.332 87.0896C214.688 84.7593 212.034 80.9591 209.971 79.4133C208.204 78.0894 204.274 76 203.551 76C203.312 76 203.441 77.6758 203.838 79.7246ZM299.322 124.934C300.793 129.699 308.027 138.833 312.137 141.113C313.091 141.643 312.913 141.939 309.536 145.445C304.846 150.314 301.57 154.978 299.019 160.419C297.085 164.544 294.999 171.803 295.581 172.384C295.727 172.531 297.2 171.972 298.854 171.142C300.508 170.313 302.38 169.474 303.014 169.277L304.166 168.92L303.105 171.394C300.087 178.426 298.899 189.455 300.068 199.597C300.439 202.823 300.879 205.456 301.045 205.448C301.211 205.44 302.113 204.169 303.048 202.624C303.984 201.079 305.192 199.577 305.734 199.288C306.574 198.839 306.767 198.971 307.045 200.185C307.225 200.969 308.827 207.389 310.606 214.453C314.462 229.763 315.255 236.079 314.814 247.951C314.222 263.887 309.841 274.3 299.297 284.841C286.126 298.007 266.891 306.379 237.869 311.576C234.053 312.259 229.774 313.066 228.36 313.369C226.947 313.672 225.27 314.027 224.634 314.157L223.478 314.394V294.893C223.478 284.167 223.304 275.284 223.092 275.153C222.879 275.022 220.277 275.038 217.309 275.189L211.913 275.465L212.063 295.663L212.215 315.861L210.521 316.155C206.842 316.793 187.829 318.536 179.802 318.972C158.911 320.107 144.225 318.433 137.127 314.109C133.947 312.171 130.428 308.723 129.272 306.412C126.763 301.395 126.156 294.192 127.576 286.277C130.067 272.397 128.45 264.124 122.045 257.982C117.827 253.938 113.791 252.495 107.643 252.835C99.7936 253.269 93.9593 257.637 91.818 264.684C89.4429 272.499 92.4014 279.833 98.6012 281.502C102.837 282.642 108.811 279.339 108.834 275.845C108.844 274.281 108.504 273.774 106.648 272.593C105.528 271.88 105.285 271.427 105.552 270.55C106.903 266.114 111.102 266.829 113.202 271.854C114.857 275.812 113.939 279.488 108.483 290.743C101.735 304.663 99.8579 312.462 100.261 324.907C100.755 340.161 105.347 350.648 116.237 361.387C128.472 373.452 142.347 380.263 161.965 383.828C167.2 384.78 170.115 384.968 179.788 384.979C192.915 384.993 197.804 384.453 208.289 381.83C223.845 377.939 233.476 373.334 263.123 355.612C286.511 341.632 296.162 337.773 309.317 337.143C319.575 336.652 327.599 338.767 334.612 343.812C340.776 348.246 345.061 353.683 347.347 359.969C348.431 362.951 349.07 363.784 349.491 362.765C349.585 362.537 352.142 360.67 355.171 358.617C368.371 349.671 378.408 337.692 384.201 323.972C388.54 313.693 390.643 299.357 389.584 287.267C387.783 266.71 381.692 252.811 363.3 227.296C356.271 217.544 352.319 211.293 348.87 204.47C345.433 197.668 344.665 195.142 344.388 189.722C344.091 183.916 344.698 181.909 347.727 178.672C350.709 175.486 353.403 174.452 357.988 174.734C362.097 174.988 365.535 176.518 370.524 180.313C372.337 181.692 374.052 182.827 374.334 182.836C374.617 182.844 375.388 182.058 376.048 181.089C380.002 175.287 380.343 163.548 376.694 158.911L375.689 157.635L374.684 159.905C374.132 161.154 373.422 162.335 373.107 162.53C372.61 162.836 366.938 162.46 357.209 161.475C354.54 161.205 354.493 161.172 355.213 160.083C356.467 158.187 362.821 153.661 367.174 151.563C370.438 149.989 377.457 147.41 378.476 147.41C378.574 147.41 379.358 148.433 380.218 149.683C382.005 152.278 383.21 153.575 383.835 153.575C384.588 153.575 386.885 146.793 387.517 142.708C388.616 135.59 386.463 128.435 382.956 127.556C381.121 127.095 377.43 127.817 365.596 130.949C360.225 132.37 355.484 133.525 355.06 133.516C354.636 133.507 353.826 132.757 353.26 131.849C352.695 130.942 351.415 129.8 350.416 129.311C348.808 128.525 348.068 128.489 343.991 129C341.456 129.318 334.641 129.588 328.846 129.6C319.267 129.621 317.792 129.502 312.628 128.292C309.503 127.561 305.365 126.246 303.433 125.37C299.24 123.47 298.858 123.429 299.322 124.934ZM346.601 140.603C346.089 142.701 343.743 145.869 342.701 145.869C342.201 145.869 340.228 145.167 338.317 144.31C334.07 142.405 334.297 142.005 340.537 140.4C346.648 138.829 347.032 138.842 346.601 140.603ZM352.236 245.54C358.167 254.416 362.382 263.739 364.793 273.311C366.976 281.981 367.585 287.365 367.229 294.853C366.592 308.291 362.897 319.691 355.476 331.12C352.398 335.862 345.451 343.987 344.925 343.461C344.804 343.34 345.97 341.142 347.517 338.578C351.833 331.422 356.14 320.668 358.65 310.779C362.385 296.062 361.826 278.859 357.099 263.001C355.306 256.987 350.691 245.414 348.565 241.598C346.359 237.64 348.477 239.914 352.236 245.54ZM307.567 348.301C298.325 349.753 284.689 355.704 269.994 364.7C237.044 384.87 223.278 390.885 201.89 394.455C166.264 400.402 136.033 396.11 104.3 380.599C99.6733 378.337 95.805 376.569 95.7048 376.669C95.2931 377.08 105.623 387.545 109.533 390.677C127.479 405.056 153.078 413.543 181.073 414.397C193.166 414.766 201.772 414.054 213.798 411.693C229.746 408.56 240.29 404.594 263.051 393.17C272.969 388.192 284.884 383.286 285.518 383.92C285.768 384.169 276.896 391.895 269.87 397.547C260.703 404.921 250.324 411.531 238.274 417.669C234.126 419.781 233.886 419.64 244.904 421.576C252.349 422.884 254.113 423.004 265.882 423C275.731 422.997 280.051 422.783 284.385 422.081C310.692 417.825 325.636 411.423 357.373 390.817C377.315 377.87 390.098 373.971 406.073 375.966C407.699 376.169 409.015 376.207 409 376.051C408.949 375.552 403.568 371.487 400.788 369.848C399.31 368.978 396.345 367.676 394.198 366.956C390.517 365.721 389.841 365.659 382.315 365.882C371.661 366.198 365.491 368.023 351.204 375.082C340.744 380.251 334.577 382.243 327.992 382.579C321.332 382.919 318.644 382.079 316.74 379.063C311.376 370.57 323.611 361.73 337.069 364.376C339.19 364.792 341.003 365.059 341.099 364.967C341.195 364.877 340.558 363.306 339.685 361.478C336.91 355.665 330.867 351.038 323.449 349.047C319.676 348.034 311.664 347.658 307.567 348.301Z" fill="white"/>
</svg>
