<svg width="885" height="221" viewBox="0 0 885 221" fill="none" xmlns="http://www.w3.org/2000/svg">
<path d="M101.725 26H143.698V195H101.725V26ZM0 26H41.7268V195H0V26ZM31.8507 97.4432H120.489V132.426H31.8507V97.4432Z" fill="white"/>
<path d="M234.653 26H275.392L333.168 195H289.959L234.653 26ZM215.394 26H256.133L201.074 195H157.619L215.394 26ZM208.234 133.165H284.527V166.669H208.234V133.165Z" fill="white"/>
<path d="M438.326 26H481.781L424.746 195H384.747L438.326 26ZM315.367 26H358.823L412.401 195H372.402L315.367 26Z" fill="white"/>
<path d="M495.685 26H551.732L608.767 148.685V26H650V195H593.953L536.918 72.3149V195H495.685V26Z" fill="white"/>
<path fill-rule="evenodd" clip-rule="evenodd" d="M754.677 2.37216C755.206 5.11012 757.964 35.3334 757.698 35.4793C757.6 35.5326 753.848 35.2345 749.358 34.8167C744.869 34.3989 735.754 33.6081 729.104 33.0594C722.454 32.5107 715.548 31.9188 713.759 31.7444C711.969 31.5703 709.512 31.4237 708.299 31.4191L706.092 31.4106L707.866 34.9558C712.347 43.9101 716.904 56.651 719.353 67.0748C720.311 71.1546 721.752 79.5628 722.284 84.1808C722.962 90.07 722.777 105.544 721.964 110.919C720.487 120.685 717.894 130.818 715.196 137.364C713.265 142.049 713.282 141.889 714.811 140.921C720.739 137.172 734.776 131.411 743.275 129.24C745.316 128.719 747.03 128.248 747.084 128.194C747.713 127.563 750.384 118.355 751.289 113.7C753.376 102.959 753.616 89.0861 751.929 76.727C750.411 65.6004 746.626 51.6633 742.177 40.8175C742.003 40.3928 742.099 40.2458 742.549 40.2488C744.078 40.2589 767.548 42.4819 767.667 42.6278C768.452 43.5872 772.231 54.3015 773.644 59.5696C776.348 69.656 777.557 77.7914 777.821 87.688C778.15 100.022 776.767 110.643 773.367 121.886C772.666 124.204 772.164 126.218 772.253 126.362C772.342 126.506 772.957 126.624 773.62 126.625C775.061 126.626 783.959 127.999 787.4 128.752C788.744 129.046 791.571 129.816 793.681 130.463C795.792 131.11 797.563 131.578 797.617 131.504C798.131 130.801 800.676 124.676 801.751 121.553C805.458 110.787 806.794 102.17 806.777 89.1604C806.761 77.3608 805.963 70.8133 803.196 59.7561C800.829 50.2995 796.69 39.4128 795.261 38.8831C794.925 38.7584 791.732 38.4175 788.166 38.1253C784.6 37.8334 778.522 37.3073 774.66 36.9566C770.798 36.6055 766.877 36.3185 765.946 36.3185C765.014 36.3185 764.169 36.1841 764.068 36.0198C763.967 35.8556 763.664 33.4628 763.396 30.7029C763.128 27.943 762.822 25.1328 762.716 24.4578L762.524 23.2308L765.083 23.2282C769.852 23.2236 772.723 22.457 776.353 20.219C778.815 18.7008 781.072 18.0699 785.441 17.6796C787.683 17.4794 790.326 17.0864 791.313 16.8063C793.897 16.0741 799.149 12.9163 799.149 12.0954C799.149 11.5941 798.926 11.4518 798.138 11.4518C796.808 11.4518 794.651 10.8334 787.558 8.42099C781.964 6.51738 781.501 6.41497 777.918 6.28671C774.927 6.17971 773.085 6.32793 768.94 7.00948C766.071 7.48129 763.401 7.93838 763.006 8.02574C762.412 8.15662 762.233 7.9891 761.978 7.06281C761.569 5.57866 759.883 3.1584 758.573 2.17388C757.451 1.3307 754.954 0 754.495 0C754.343 0 754.425 1.06731 754.677 2.37216ZM815.33 31.1652C816.265 34.2003 820.86 40.0178 823.471 41.4699C824.077 41.8069 823.964 41.9957 821.818 44.2285C818.839 47.3296 816.758 50.3002 815.138 53.7652C813.909 56.3929 812.584 61.0158 812.954 61.3859C813.047 61.4791 813.982 61.1231 815.033 60.595C816.084 60.0669 817.273 59.5323 817.676 59.407L818.408 59.1796L817.733 60.755C815.816 65.2337 815.062 72.2582 815.804 78.7173C816.04 80.7718 816.319 82.4486 816.425 82.4437C816.531 82.4385 817.103 81.6294 817.697 80.6452C818.292 79.661 819.059 78.7049 819.403 78.5204C819.937 78.2344 820.06 78.3185 820.236 79.092C820.351 79.5909 821.368 83.6799 822.498 88.1788C824.948 97.9298 825.451 101.952 825.171 109.513C824.795 119.663 822.012 126.295 815.314 133.008C806.948 141.394 794.73 146.726 776.294 150.035C773.87 150.471 771.152 150.985 770.254 151.177C769.356 151.37 768.291 151.596 767.887 151.679L767.152 151.83V139.41C767.152 132.579 767.042 126.922 766.907 126.838C766.772 126.755 765.12 126.765 763.234 126.861L759.806 127.037L759.902 139.901L759.998 152.765L758.922 152.951C756.585 153.358 744.508 154.468 739.409 154.746C726.138 155.469 716.809 154.403 712.301 151.649C710.281 150.414 708.046 148.219 707.311 146.747C705.717 143.551 705.332 138.964 706.234 133.923C707.816 125.083 706.789 119.814 702.72 115.902C700.041 113.326 697.477 112.408 693.572 112.624C688.586 112.9 684.88 115.682 683.52 120.17C682.011 125.148 683.89 129.819 687.828 130.882C690.519 131.608 694.314 129.504 694.328 127.278C694.335 126.283 694.119 125.96 692.94 125.208C692.229 124.754 692.074 124.465 692.244 123.906C693.102 121.081 695.769 121.537 697.103 124.737C698.155 127.258 697.571 129.599 694.105 136.767C689.819 145.633 688.627 150.6 688.883 158.526C689.196 168.241 692.114 174.92 699.031 181.759C706.803 189.444 715.617 193.781 728.078 196.052C731.404 196.658 733.255 196.778 739.4 196.785C747.739 196.794 750.844 196.45 757.504 194.78C767.386 192.301 773.504 189.368 792.336 178.082C807.193 169.178 813.323 166.72 821.679 166.319C828.196 166.006 833.293 167.353 837.747 170.566C841.663 173.39 844.385 176.853 845.837 180.857C846.525 182.755 846.931 183.286 847.199 182.637C847.258 182.492 848.882 181.303 850.807 179.995C859.192 174.298 865.567 166.668 869.247 157.93C872.004 151.384 873.339 142.254 872.666 134.553C871.522 121.461 867.653 112.609 855.97 96.3586C851.505 90.1475 848.995 86.1662 846.804 81.8211C844.621 77.489 844.133 75.8802 843.957 72.4283C843.769 68.7301 844.154 67.4524 846.078 65.3907C847.973 63.3611 849.684 62.7028 852.596 62.8828C855.206 63.0441 857.39 64.0185 860.559 66.4354C861.711 67.314 862.8 68.0371 862.98 68.0423C863.159 68.0475 863.649 67.5469 864.069 66.9298C866.58 63.2345 866.796 55.7581 864.478 52.8049L863.84 51.9924L863.202 53.4383C862.851 54.2334 862.4 54.9856 862.2 55.1096C861.885 55.305 858.282 55.0655 852.101 54.4379C850.406 54.2658 850.376 54.2448 850.833 53.5515C851.63 52.3442 855.666 49.4616 858.432 48.125C860.505 47.1228 864.963 45.48 865.61 45.48C865.673 45.48 866.171 46.1314 866.717 46.9278C867.852 48.5808 868.618 49.4063 869.015 49.4063C869.493 49.4063 870.952 45.0873 871.353 42.4855C872.052 37.9519 870.684 33.3954 868.456 32.8352C867.291 32.5421 864.946 33.0014 857.429 34.996C854.017 35.9014 851.005 36.6372 850.736 36.6313C850.467 36.6254 849.952 36.1477 849.593 35.5696C849.234 34.9918 848.421 34.2644 847.786 33.9529C846.765 33.4523 846.295 33.4294 843.705 33.7553C842.095 33.9575 837.766 34.1296 834.084 34.1375C828 34.1506 827.063 34.0746 823.783 33.3044C821.798 32.8385 819.169 32.0009 817.942 31.443C815.278 30.2331 815.035 30.2069 815.33 31.1652ZM845.363 41.1447C845.038 42.4812 843.548 44.4984 842.886 44.4984C842.568 44.4984 841.315 44.0518 840.101 43.506C837.403 42.2928 837.547 42.0379 841.511 41.0157C845.393 40.0149 845.636 40.023 845.363 41.1447ZM848.943 107.978C852.71 113.631 855.388 119.568 856.919 125.665C858.306 131.186 858.692 134.615 858.466 139.385C858.061 147.943 855.714 155.204 851.001 162.483C849.045 165.503 844.632 170.678 844.298 170.343C844.221 170.266 844.962 168.866 845.945 167.232C848.686 162.675 851.422 155.826 853.017 149.528C855.389 140.155 855.034 129.198 852.031 119.099C850.892 115.268 847.961 107.897 846.61 105.467C845.209 102.946 846.555 104.395 848.943 107.978ZM820.568 173.425C814.697 174.35 806.035 178.14 796.7 183.869C775.77 196.715 767.025 200.546 753.439 202.82C730.809 206.608 711.606 203.874 691.449 193.995C688.509 192.555 686.052 191.428 685.989 191.493C685.727 191.754 692.289 198.419 694.773 200.414C706.172 209.571 722.433 214.977 740.216 215.521C747.898 215.756 753.365 215.303 761.003 213.798C771.134 211.803 777.832 209.278 792.29 202.001C798.59 198.831 806.159 195.707 806.562 196.11C806.721 196.269 801.085 201.19 796.622 204.789C790.799 209.486 784.206 213.696 776.551 217.605C773.916 218.95 773.764 218.86 780.763 220.093C785.492 220.926 786.613 221.002 794.088 221C800.345 220.998 803.089 220.862 805.842 220.415C822.553 217.704 832.045 213.627 852.205 200.503C864.873 192.257 872.993 189.774 883.141 191.044C884.174 191.174 885.01 191.198 885 191.099C884.968 190.781 881.549 188.192 879.783 187.148C878.845 186.594 876.961 185.765 875.597 185.306C873.259 184.519 872.83 184.481 868.049 184.623C861.281 184.823 857.362 185.986 848.287 190.482C841.642 193.774 837.725 195.042 833.542 195.256C829.311 195.473 827.604 194.938 826.395 193.017C822.987 187.608 830.759 181.978 839.308 183.663C840.655 183.928 841.807 184.098 841.868 184.04C841.929 183.982 841.524 182.982 840.97 181.817C839.207 178.115 835.368 175.169 830.656 173.9C828.26 173.255 823.17 173.016 820.568 173.425Z" fill="white"/>
</svg>
